<svg width="50" height="58" viewBox="0 0 50 58" fill="none" xmlns="http://www.w3.org/2000/svg">
<path d="M28.5714 7.14287C28.5714 5.17077 30.1674 3.57144 32.1429 3.57144H46.3281C46.9085 3.57144 47.3772 3.66742 47.7902 3.84265C48.1138 4.01564 48.6049 4.27122 48.9509 4.60939C48.9509 4.61497 48.9509 4.62055 48.9621 4.62501C49.654 5.31921 49.8996 6.22546 50 7.13171C50 7.13617 50 7.13952 50 7.14287V21.4286C50 23.404 48.404 25 46.4286 25C44.4531 25 42.8571 23.404 42.8571 21.4286V15.7701L23.9509 34.6652C22.5558 36.0603 20.3013 36.0603 18.9062 34.6652C17.5112 33.2701 17.5112 31.0156 18.9062 29.6205L37.8013 10.7143H32.1429C30.1674 10.7143 28.5714 9.11497 28.5714 7.14287ZM0 14.2857C0 10.3404 3.19754 7.14287 7.14286 7.14287H17.8571C19.8326 7.14287 21.4286 8.7422 21.4286 10.7143C21.4286 12.6897 19.8326 14.2857 17.8571 14.2857H7.14286V46.4286H39.2857V35.7143C39.2857 33.7389 40.8817 32.1429 42.8571 32.1429C44.8326 32.1429 46.4286 33.7389 46.4286 35.7143V46.4286C46.4286 50.3683 43.2254 53.5714 39.2857 53.5714H7.14286C3.19754 53.5714 0 50.3683 0 46.4286V14.2857Z" fill="#00FA9A"/>
</svg>
